<svg xmlns="http://www.w3.org/2000/svg" viewBox="0 0 900 320" width="900" height="320">
  <defs>
    <marker id="arrow" markerWidth="6" markerHeight="6" refX="5" refY="3" orient="auto">
      <path d="M0,0 L6,3 L0,6 Z" fill="#818CF8"/>
    </marker>
  </defs>

  <!-- Background with rounded corners -->
  <rect width="900" height="320" rx="16" fill="#1E1B4B"/>

  <!-- Title -->
  <text x="450" y="35" font-family="system-ui, -apple-system, sans-serif" font-size="14" fill="#E0E7FF" text-anchor="middle" font-weight="700" letter-spacing="4">11-STAGE SDLC PIPELINE</text>

  <!-- S0 -->
  <rect x="20" y="55" width="75" height="55" rx="8" fill="#312E81" stroke="#818CF8" stroke-width="1.5"/>
  <text x="57" y="76" font-family="system-ui" font-size="10" fill="#E0E7FF" text-anchor="middle" font-weight="700">S0</text>
  <text x="57" y="92" font-family="system-ui" font-size="9" fill="#C7D2FE" text-anchor="middle">Init</text>
  <path d="M98 82 L108 82" stroke="#818CF8" stroke-width="2" marker-end="url(#arrow)"/>

  <!-- S1 -->
  <rect x="112" y="55" width="75" height="55" rx="8" fill="#312E81" stroke="#818CF8" stroke-width="1.5"/>
  <text x="149" y="76" font-family="system-ui" font-size="10" fill="#E0E7FF" text-anchor="middle" font-weight="700">S1</text>
  <text x="149" y="92" font-family="system-ui" font-size="9" fill="#C7D2FE" text-anchor="middle">Brainstorm</text>
  <path d="M190 82 L200 82" stroke="#818CF8" stroke-width="2" marker-end="url(#arrow)"/>

  <!-- S2 -->
  <rect x="204" y="55" width="75" height="55" rx="8" fill="#3B0764" stroke="#A78BFA" stroke-width="1.5"/>
  <text x="241" y="76" font-family="system-ui" font-size="10" fill="#EDE9FE" text-anchor="middle" font-weight="700">S2</text>
  <text x="241" y="92" font-family="system-ui" font-size="9" fill="#DDD6FE" text-anchor="middle">Research</text>
  <path d="M282 82 L292 82" stroke="#A78BFA" stroke-width="2" marker-end="url(#arrow)"/>

  <!-- S3 (Parallel) -->
  <rect x="296" y="55" width="75" height="55" rx="8" fill="#4C1D95" stroke="#C4B5FD" stroke-width="1.5"/>
  <text x="333" y="72" font-family="system-ui" font-size="10" fill="#F5F3FF" text-anchor="middle" font-weight="700">S3</text>
  <text x="333" y="85" font-family="system-ui" font-size="9" fill="#EDE9FE" text-anchor="middle">Architecture</text>
  <text x="333" y="100" font-family="system-ui" font-size="7" fill="#C4B5FD" text-anchor="middle" font-weight="600">PARALLEL</text>
  <path d="M374 82 L384 82" stroke="#C4B5FD" stroke-width="2" marker-end="url(#arrow)"/>

  <!-- S4 -->
  <rect x="388" y="55" width="75" height="55" rx="8" fill="#4C1D95" stroke="#C4B5FD" stroke-width="1.5"/>
  <text x="425" y="76" font-family="system-ui" font-size="10" fill="#F5F3FF" text-anchor="middle" font-weight="700">S4</text>
  <text x="425" y="92" font-family="system-ui" font-size="9" fill="#EDE9FE" text-anchor="middle">Planning</text>
  <path d="M466 82 L476 82" stroke="#C4B5FD" stroke-width="2" marker-end="url(#arrow)"/>

  <!-- S5 (Parallel) -->
  <rect x="480" y="55" width="75" height="55" rx="8" fill="#86198F" stroke="#F0ABFC" stroke-width="1.5"/>
  <text x="517" y="72" font-family="system-ui" font-size="10" fill="#FDF4FF" text-anchor="middle" font-weight="700">S5</text>
  <text x="517" y="85" font-family="system-ui" font-size="9" fill="#FAE8FF" text-anchor="middle">Implement</text>
  <text x="517" y="100" font-family="system-ui" font-size="7" fill="#F0ABFC" text-anchor="middle" font-weight="600">PARALLEL</text>
  <path d="M558 82 L568 82" stroke="#F0ABFC" stroke-width="2" marker-end="url(#arrow)"/>

  <!-- S6 (Parallel) -->
  <rect x="572" y="55" width="75" height="55" rx="8" fill="#9D174D" stroke="#F9A8D4" stroke-width="1.5"/>
  <text x="609" y="72" font-family="system-ui" font-size="10" fill="#FFF1F2" text-anchor="middle" font-weight="700">S6</text>
  <text x="609" y="85" font-family="system-ui" font-size="9" fill="#FCE7F3" text-anchor="middle">QA Review</text>
  <text x="609" y="100" font-family="system-ui" font-size="7" fill="#F9A8D4" text-anchor="middle" font-weight="600">PARALLEL</text>
  <path d="M650 82 L660 82" stroke="#F9A8D4" stroke-width="2" marker-end="url(#arrow)"/>

  <!-- S7 -->
  <rect x="664" y="55" width="75" height="55" rx="8" fill="#9F1239" stroke="#FDA4AF" stroke-width="1.5"/>
  <text x="701" y="76" font-family="system-ui" font-size="10" fill="#FFF1F2" text-anchor="middle" font-weight="700">S7</text>
  <text x="701" y="92" font-family="system-ui" font-size="9" fill="#FFE4E6" text-anchor="middle">Testing</text>
  <path d="M742 82 L752 82" stroke="#FDA4AF" stroke-width="2" marker-end="url(#arrow)"/>

  <!-- S8 -->
  <rect x="756" y="55" width="55" height="55" rx="8" fill="#991B1B" stroke="#FCA5A5" stroke-width="1.5"/>
  <text x="783" y="76" font-family="system-ui" font-size="10" fill="#FEF2F2" text-anchor="middle" font-weight="700">S8</text>
  <text x="783" y="92" font-family="system-ui" font-size="9" fill="#FECACA" text-anchor="middle">Debug</text>

  <!-- Arrow down to second row -->
  <path d="M783 113 L783 128 L450 128 L450 145" stroke="#FCA5A5" stroke-width="1.5" fill="none" stroke-dasharray="4,3"/>

  <!-- S9 -->
  <rect x="388" y="148" width="120" height="50" rx="8" fill="#166534" stroke="#86EFAC" stroke-width="1.5"/>
  <text x="448" y="170" font-family="system-ui" font-size="10" fill="#F0FDF4" text-anchor="middle" font-weight="700">S9 Documentation</text>
  <text x="448" y="185" font-family="system-ui" font-size="8" fill="#BBF7D0" text-anchor="middle">Auto-generated docs, ADRs</text>
  <path d="M511 173 L530 173" stroke="#86EFAC" stroke-width="2" marker-end="url(#arrow)"/>

  <!-- S10 (Optional) -->
  <rect x="534" y="148" width="120" height="50" rx="8" fill="#0C4A6E" stroke="#7DD3FC" stroke-width="1.5" stroke-dasharray="5,3"/>
  <text x="594" y="170" font-family="system-ui" font-size="10" fill="#F0F9FF" text-anchor="middle" font-weight="700">S10 Deploy (opt-in)</text>
  <text x="594" y="185" font-family="system-ui" font-size="8" fill="#BAE6FD" text-anchor="middle">AWS / GCP / Azure / Vercel</text>

  <!-- Bar chart title -->
  <text x="450" y="230" font-family="system-ui" font-size="12" fill="#C7D2FE" text-anchor="middle" font-weight="600" letter-spacing="2">AGENT DISTRIBUTION BY STAGE</text>

  <!-- Bar chart -->
  <rect x="60" y="248" width="15" height="20" rx="2" fill="#818CF8"/>
  <text x="67" y="280" font-family="system-ui" font-size="8" fill="#C7D2FE" text-anchor="middle">S0</text>
  <text x="67" y="245" font-family="system-ui" font-size="9" fill="#E0E7FF" text-anchor="middle" font-weight="600">2</text>

  <rect x="130" y="258" width="15" height="10" rx="2" fill="#818CF8"/>
  <text x="137" y="280" font-family="system-ui" font-size="8" fill="#C7D2FE" text-anchor="middle">S1</text>
  <text x="137" y="255" font-family="system-ui" font-size="9" fill="#E0E7FF" text-anchor="middle" font-weight="600">1</text>

  <rect x="200" y="258" width="15" height="10" rx="2" fill="#A78BFA"/>
  <text x="207" y="280" font-family="system-ui" font-size="8" fill="#C7D2FE" text-anchor="middle">S2</text>
  <text x="207" y="255" font-family="system-ui" font-size="9" fill="#EDE9FE" text-anchor="middle" font-weight="600">1</text>

  <rect x="270" y="228" width="15" height="40" rx="2" fill="#C4B5FD"/>
  <text x="277" y="280" font-family="system-ui" font-size="8" fill="#C7D2FE" text-anchor="middle">S3</text>
  <text x="277" y="225" font-family="system-ui" font-size="9" fill="#F5F3FF" text-anchor="middle" font-weight="600">5</text>

  <rect x="340" y="238" width="15" height="30" rx="2" fill="#C4B5FD"/>
  <text x="347" y="280" font-family="system-ui" font-size="8" fill="#C7D2FE" text-anchor="middle">S4</text>
  <text x="347" y="235" font-family="system-ui" font-size="9" fill="#F5F3FF" text-anchor="middle" font-weight="600">3</text>

  <rect x="410" y="218" width="15" height="50" rx="2" fill="#F0ABFC"/>
  <text x="417" y="280" font-family="system-ui" font-size="8" fill="#C7D2FE" text-anchor="middle">S5</text>
  <text x="417" y="215" font-family="system-ui" font-size="9" fill="#FDF4FF" text-anchor="middle" font-weight="600">6</text>

  <rect x="480" y="218" width="15" height="50" rx="2" fill="#F9A8D4"/>
  <text x="487" y="280" font-family="system-ui" font-size="8" fill="#C7D2FE" text-anchor="middle">S6</text>
  <text x="487" y="215" font-family="system-ui" font-size="9" fill="#FFF1F2" text-anchor="middle" font-weight="600">5</text>

  <rect x="550" y="248" width="15" height="20" rx="2" fill="#FDA4AF"/>
  <text x="557" y="280" font-family="system-ui" font-size="8" fill="#C7D2FE" text-anchor="middle">S7</text>
  <text x="557" y="245" font-family="system-ui" font-size="9" fill="#FFF1F2" text-anchor="middle" font-weight="600">1</text>

  <rect x="620" y="258" width="15" height="10" rx="2" fill="#FCA5A5"/>
  <text x="627" y="280" font-family="system-ui" font-size="8" fill="#C7D2FE" text-anchor="middle">S8</text>
  <text x="627" y="255" font-family="system-ui" font-size="9" fill="#FEF2F2" text-anchor="middle" font-weight="600">1</text>

  <rect x="690" y="228" width="15" height="40" rx="2" fill="#86EFAC"/>
  <text x="697" y="280" font-family="system-ui" font-size="8" fill="#C7D2FE" text-anchor="middle">S9</text>
  <text x="697" y="225" font-family="system-ui" font-size="9" fill="#F0FDF4" text-anchor="middle" font-weight="600">4</text>

  <rect x="760" y="238" width="15" height="30" rx="2" fill="#7DD3FC"/>
  <text x="767" y="280" font-family="system-ui" font-size="8" fill="#C7D2FE" text-anchor="middle">S10</text>
  <text x="767" y="235" font-family="system-ui" font-size="9" fill="#F0F9FF" text-anchor="middle" font-weight="600">3</text>

  <!-- Footer -->
  <text x="450" y="305" font-family="system-ui" font-size="10" fill="#A5B4FC" text-anchor="middle">Stages S3, S5, S6 support full parallel execution  |  S10 is opt-in  |  Cross-cutting: Orchestrator + Project Manager</text>
</svg>
